
<svg width="115" height="189" viewBox="0 0 115 189" fill="none" xmlns="http://www.w3.org/2000/svg">
<path d="M72.8301 122.5C72.8396 122.507 72.8592 122.526 72.8877 122.567C72.9426 122.648 73.0078 122.785 73.0713 123.004C73.4566 124.331 73.3871 125.674 73.4727 127.177C73.5054 127.752 73.6247 128.3 73.8447 128.837C74.1916 129.684 74.3312 130.483 74.2432 131.222C74.1559 131.953 73.8416 132.657 73.2266 133.318C72.6242 133.966 72.283 134.655 72.1641 135.396C72.0466 136.13 72.1518 136.878 72.3789 137.64C72.8701 139.286 73.4293 140.814 73.7344 142.44C74.1981 144.913 73.6486 147.197 72.458 149.413C71.5857 151.037 70.574 152.782 70.3984 154.818C70.1367 157.854 70.1288 160.922 70.8252 163.965C70.9239 164.396 71.09 164.808 71.3779 165.149C71.671 165.497 72.0646 165.741 72.5645 165.875C73.3091 166.074 73.7484 166.621 73.9805 167.559L74.0928 168.013L74.5537 167.931C81.5337 166.696 87.1805 163.534 91.5723 158.466C88.2983 164.766 83.1506 169.289 76.4043 172.229C68.3278 175.75 60.1095 175.597 51.7441 172.447L51.0537 172.188L51.0684 172.925C51.1309 176.127 52.127 178.808 53.9531 181.253L53.958 181.261L53.9639 181.268C55.7778 183.517 57.9456 185.277 60.9258 185.772C63.5185 186.204 65.8416 185.588 67.5967 183.413C68.0151 182.894 68.3558 182.644 68.6211 182.554C68.8491 182.476 69.0657 182.501 69.3271 182.681C69.712 182.946 69.9114 183.662 69.2803 184.651C68.0377 186.599 66.1729 187.616 63.9072 187.899C59.5972 188.439 56.1874 186.595 53.2461 183.515C50.3386 180.47 48.8311 176.742 48.2051 172.579C47.7874 169.802 47.515 167.019 47.501 164.224C47.479 159.852 47.848 155.598 49.583 151.591C51.3621 147.481 54.3664 144.574 58.3643 142.585C59.6219 141.959 60.9447 141.292 62.0752 140.303C63.1669 139.347 63.972 138.184 64.2471 136.661C64.4086 135.766 64.2311 134.937 63.5869 134.27C62.2166 132.851 61.5925 131.306 62.0371 129.392C62.1198 129.035 62.0622 128.703 61.998 128.44C61.9234 128.135 61.8625 127.98 61.8271 127.761C61.6179 126.46 61.3634 125.308 61.5518 124.125C61.5824 123.933 61.6186 123.815 61.6504 123.747C61.6545 123.738 61.6588 123.732 61.6621 123.726C61.6697 123.726 61.6793 123.726 61.6904 123.729C61.7661 123.743 61.8842 123.784 62.0605 123.873C62.9274 124.309 63.6668 124.945 64.4697 125.619C64.6872 125.802 64.9268 125.951 65.21 126.025C65.4969 126.101 65.7865 126.088 66.0879 126.013C67.0541 125.772 68.0276 125.651 68.9932 125.733C69.3641 125.765 69.71 125.714 70.0205 125.546C70.3278 125.38 70.5549 125.124 70.7344 124.827C71.1954 124.065 71.7287 123.371 72.375 122.79C72.5417 122.64 72.6664 122.56 72.752 122.523C72.7948 122.505 72.8194 122.501 72.8301 122.5ZM62.5029 154.181C62.8011 154.498 62.9982 154.721 63.1973 154.918C64.8017 156.507 65.3762 158.432 65.0908 160.663C64.8753 162.348 64.1561 163.843 63.1104 165.222C62.8834 165.521 62.6679 165.85 62.3926 166.243L61.749 167.162L62.8623 167.025C63.2713 166.975 63.634 166.955 63.9482 166.888C64.7476 166.717 65.4484 166.616 66.0605 166.726C66.6376 166.829 67.166 167.125 67.6201 167.838C67.801 168.122 68.0821 168.278 68.4033 168.279C68.6853 168.28 68.9462 168.161 69.1543 168.028L69.4883 167.815L69.3564 167.441L68.8955 166.117C68.118 163.696 67.5982 161.207 67.1133 158.685C66.782 156.961 66.1236 155.322 64.6328 154.116C64.2209 153.783 63.7335 153.445 62.9316 153.343L61.5518 153.167L62.5029 154.181Z" fill="#1f2937" />
<path d="M43.0575 117.278C49.3982 112.437 56.3915 110.185 64.0526 110.787C57.783 111.853 52.321 114.749 47.7743 119.527C42.3968 125.178 39.8379 131.976 39.9618 139.785L39.9823 140.544C40.1677 146.27 41.884 151.422 45.1014 156.055C45.2923 156.33 45.3956 156.569 45.4432 156.804C45.4911 157.041 45.489 157.305 45.4286 157.64C44.6885 161.745 44.6492 165.866 45.1571 169.986C44.9235 169.903 44.6618 169.783 44.3739 169.619C43.8275 169.307 43.2172 168.861 42.5643 168.3C41.2589 167.179 39.8167 165.629 38.4139 163.863C35.6018 160.323 33.0045 155.992 31.9843 152.639C27.9655 139.434 32.2703 125.514 43.0575 117.278Z" fill="#1f2937" />
<mask id="mask0_9_13" style="mask-type:luminance" maskUnits="userSpaceOnUse" x="0" y="-2" width="115" height="115">
<path d="M114.5 -1.5V112.5H0.5V-1.5H114.5Z" fill="white" stroke="white"/>
</mask>
<!-- <g mask="url(#mask0_9_13)">
<path d="M66.7468 14.7519C73.5109 14.5214 79.0054 19.8324 79.0056 26.6015V51.8359L79.5222 51.8183L85.4841 51.6152C92.2412 51.3849 97.7419 56.6958 97.7419 63.4648C97.7419 70.2432 92.2273 75.9534 85.4499 76.1845C78.6858 76.415 73.1913 71.1009 73.1911 64.3359V57.8515L72.6745 57.8691L60.7507 58.2753L60.2673 58.2919V83.4921C60.2673 90.2716 54.7517 95.9819 47.9743 96.2128C41.2143 96.4431 35.7165 91.1291 35.7165 84.3632V59.1288L35.1989 59.1464L29.238 59.3495C22.4768 59.5799 16.9792 54.2663 16.9792 47.497C16.9792 40.7178 22.4975 35.0112 29.2722 34.7802C35.9234 34.5537 41.3552 39.6958 41.5261 46.3134L41.53 46.6298V84.1308C41.53 87.6214 44.1711 91.2077 48.1647 90.9824C52.0533 90.7629 54.4548 87.2035 54.4548 83.7245V27.4726C54.4548 20.6902 59.9692 14.9831 66.7468 14.7519ZM85.4499 57.4335L79.488 57.6367L79.0056 57.6533V64.1035C79.0057 67.6754 81.9146 70.4877 85.4841 70.3661C89.0402 70.2448 91.9282 67.2558 91.9284 63.6972C91.9284 60.2361 89.1987 57.4886 85.7829 57.4306L85.4499 57.4335ZM29.238 40.5995C25.682 40.7208 22.7937 43.7057 22.7936 47.2646C22.7936 50.8404 25.7022 53.6529 29.2722 53.5312L35.2331 53.3281L35.7165 53.3115V46.8613L35.7077 46.5283C35.5306 43.1168 32.6931 40.4819 29.238 40.5995ZM66.7126 20.5722C63.1555 20.6935 60.2674 23.6817 60.2673 27.2402V52.4745L60.7839 52.457L72.7087 52.0507L73.1911 52.0341V26.8339C73.191 23.2619 70.2821 20.4505 66.7126 20.5722Z" fill="#1f2937" />
<path d="M16.4792 47.4971C16.4792 40.4482 22.2108 34.5203 29.2548 34.2802C36.2945 34.0402 42.0271 39.5774 42.0302 46.6292V52.596V60.4271V84.1309C42.0302 87.42 44.5085 90.6879 48.1364 90.4832C51.6911 90.2826 53.9543 87.0137 53.9543 83.7245V59.0074V52.1897V27.4727C53.9543 20.4207 59.6828 14.4929 66.7299 14.2526C73.7768 14.0125 79.5053 19.5498 79.5053 26.6017V51.3188L85.4669 51.1156C92.5066 50.8756 98.2423 56.4128 98.2423 63.4648C98.2423 70.5126 92.5138 76.4444 85.4669 76.6847C78.4199 76.9248 72.6913 71.3833 72.6913 64.3355V58.3687L60.7672 58.7752V83.4922C60.7672 90.5411 55.0387 96.4721 47.9918 96.7122C40.9489 96.9523 35.2162 91.412 35.2162 84.3632V59.646L29.2548 59.8493C22.2108 60.0893 16.4792 54.549 16.4792 47.4971ZM35.2162 46.8615C35.2131 43.5724 32.5386 40.987 29.2548 41.0989C25.9678 41.211 23.2932 43.9756 23.2932 47.2648C23.2932 50.5581 25.9678 53.1436 29.2548 53.0315L35.2162 52.8283V46.8615ZM72.6913 26.834C72.6913 23.5447 70.0167 20.9594 66.7299 21.0715C63.442 21.1834 60.7672 23.9512 60.7672 27.2404V51.9574L72.6913 51.5511V26.834ZM79.5053 58.1366V64.1032C79.5053 67.3925 82.1801 69.9779 85.4669 69.866C88.7538 69.7539 91.4284 66.9862 91.4284 63.6969C91.4284 60.4067 88.7538 57.8213 85.4669 57.9333L79.5053 58.1366Z" />
</g> -->
</svg>
